<svg xmlns="http://www.w3.org/2000/svg" xmlns:xlink="http://www.w3.org/1999/xlink" width="78" height="78" viewBox="0 0 78 78"><defs><style>.a,.c,.d,.e{fill:none;}.b{clip-path:url(#a);}.c,.d,.e{stroke:#000;stroke-miterlimit:10;}.c{stroke-width:1.302px;}.d{stroke-width:0.766px;}.e{stroke-width:0.306px;}</style><clipPath id="a"><rect class="a" width="77.838" height="77.84"/></clipPath></defs><circle class="a" cx="39" cy="39" r="39"/><g transform="translate(38.929 38.92)"><g class="b" transform="translate(-38.919 -38.92)"><circle class="c" cx="38.268" cy="38.268" r="38.268" transform="translate(0.651 0.651)"/><path class="d" d="M215.939,247.922s-5.125-.314-13.905,3.448-14.955,8.259-17.881,9.308a16.856,16.856,0,0,0-5.547,3.869,5.156,5.156,0,0,0,2.927,2.092c-.521,1.31-3.294,8.994-3.448,9.354s-2.666,1.885-6.849,2.567-12.442,4.551-3.869,9.148c4.129,1.724,5.386,6.428,7.945,7.27s3.869-.314,7.424-8.466c1.41-2.337,3.256-3.4,8.389-4.811s8.764-3.67,15.767-10.519S217.77,257.645,215.939,247.922Z" transform="translate(-151.087 -228.923)"/><path class="e" d="M714.174,363.756c.421,1.065-.636,3.172-2.207,3.8a2.732,2.732,0,0,1-3.578-1.111c-.421-1.065.8-2.927,2.375-3.547S713.753,362.691,714.174,363.756Z" transform="translate(-654.041 -334.827)"/><path d="M732.193,383.667a1.7,1.7,0,0,1-1.019,1.754,1.269,1.269,0,0,1-1.655-.513c-.2-.49.375-1.348,1.1-1.64s1.379-.092,1.578.4" transform="translate(-673.592 -353.78)"/></g></g></svg>