<svg xmlns="http://www.w3.org/2000/svg" xmlns:xlink="http://www.w3.org/1999/xlink" width="77.838" height="77.84" viewBox="0 0 77.838 77.84"><defs><style>.a,.c,.d,.e,.f,.g,.h{fill:none;}.b{clip-path:url(#a);}.c,.d,.e,.f,.g,.h{stroke:#000;stroke-miterlimit:10;}.c{stroke-width:1.302px;}.d{stroke-width:0.613px;}.e{stroke-width:1.302px;}.f{stroke-width:1.302px;}.g{stroke-width:0.536px;}.h{stroke-width:0.23px;}</style><clipPath id="a"><rect class="a" width="77.838" height="77.84"/></clipPath></defs><g transform="translate(38.919 38.92)"><g class="b" transform="translate(-38.919 -38.92)"><circle class="c" cx="38.268" cy="38.268" r="38.268" transform="translate(0.651 0.651)"/><path class="d" d="M239.409,136.5s-.628,11.239-5.033,13.3-10.963,6.29-23.014-.9c-3.325-1.617-5.93-2.7-6.474-11.6-.268-1.172-.268-1.977-2.873-3.869s-3.907-5.079-4.221-10.335c0,0-.054-1.931.85-2.291,0,0,.812-.812,3.256-.559-.153-4.758-.7-6.619-.873-10.45a19.442,19.442,0,0,1,7.669-16.717c7.133-5.447,18.157-4.2,24.332-.72,0,0,7.071,4.436,8.213,11.982a83.681,83.681,0,0,1,.536,15.943s1.7-.238,2.038.659a7.094,7.094,0,0,1,.291,3.777,26.189,26.189,0,0,0-.812,3.976,4.332,4.332,0,0,1-.766,2.337c-.605.9-.873,2.023-1.348,2.429A3.97,3.97,0,0,0,239.409,136.5Z" transform="translate(-182.639 -82.527)"/><path d="M463.9,639.574a1.839,1.839,0,0,0,.521.667,3.441,3.441,0,0,0,2.383-.291,2.091,2.091,0,0,1,1.708.222,5.7,5.7,0,0,0,2.36.559,5.6,5.6,0,0,0,2.4-.521c.536-.23.973-.406,1.417-.107a2,2,0,0,0,1.41.475.632.632,0,0,0,.406-.368c.207-.4.4-.8.4-.812a4.51,4.51,0,0,1-.046,1.2c-.115.26-.207.575-.575.674a2.581,2.581,0,0,1-1.992-.575c-.115-.077-.306-.008-.743.176a6.525,6.525,0,0,1-2.6.575h-.092a6.441,6.441,0,0,1-2.628-.613c-.6-.253-.843-.345-1.157-.222-.981.4-2.567.46-2.835.146a2.808,2.808,0,0,1-.337-1.18" transform="translate(-428.359 -590.412)"/><path d="M378.695,488.813s.207.207.506-.123a4.43,4.43,0,0,1,4.014-1.471c2.084.49,2.053.613,2.275.881s.406.644.582.521.36-.912-.827-1.678-3.233-1.272-4.551-.613-2.459,1.8-2.007,2.4" transform="translate(-349.582 -448.791)"/><path d="M610.805,489.744c.092.13.192.215.621-.245a3.777,3.777,0,0,1,2.689-1.065,2.887,2.887,0,0,1,2.214.651,2.849,2.849,0,0,1,.682,1c.023.077.475.2.628,0a.65.65,0,0,0,.092-.7c-.123-.215-.667-1.739-1.954-1.908a4.911,4.911,0,0,0-3.394.406,4.359,4.359,0,0,0-1.571,1.394.712.712,0,0,0,0,.475" transform="translate(-563.98 -450.036)"/><path d="M639.759,496.979a1.279,1.279,0,1,1-1.279-1.279,1.279,1.279,0,0,1,1.279,1.279" transform="translate(-588.383 -457.723)"/><path d="M421.251,497.325A1.325,1.325,0,1,1,419.925,496a1.325,1.325,0,0,1,1.325,1.325" transform="translate(-386.53 -458)"/><path class="e" d="M610.6,424.377a35.589,35.589,0,0,1,6.566-.866c1.854.153,2.337.238,2.337.238" transform="translate(-563.82 -391.05)"/><path class="f" d="M378.153,422.772a21.538,21.538,0,0,0-9.753-.7" transform="translate(-340.176 -389.446)"/><path d="M438.5,744.233a12.67,12.67,0,0,0,3.011-.391l.153-.061a7.943,7.943,0,0,1,3.21-.85l.95.092a5.16,5.16,0,0,0,1.149.046l.23-.031a10.664,10.664,0,0,1,3.11-.115,17.014,17.014,0,0,1,1.846.567,19.149,19.149,0,0,0,3.172.881l-3.049-1.226a18.975,18.975,0,0,0-1.892-.575,11.273,11.273,0,0,0-3.241.107l-.222.031a4.47,4.47,0,0,1-1.065-.046l-.965-.092a8.164,8.164,0,0,0-3.379.881l-.153.061Z" transform="translate(-404.905 -685.601)"/><path d="M468.74,721.322l-.628-.421a21.838,21.838,0,0,0-3.5-2.091c-1.027-.36-3.769-.077-5.585.107l-.659.069c-1.624.161-4.168,2.252-4.275,2.344s.774-.513,1.111-.7a20.871,20.871,0,0,1,1.931-1.05,10.707,10.707,0,0,1,1.9-.475c1.685-.176,4.52-.467,5.508-.115a18.8,18.8,0,0,1,2.758,1.594l1.433.751" transform="translate(-419.294 -663.58)"/><path class="g" d="M486.9,783.9a13.634,13.634,0,0,0,9.393.2" transform="translate(-449.597 -723.844)"/><path class="h" d="M308.234,267.448s-.176-7.608-4.612-8.45-7.792.6-10.848.238-6.949-1.256-9.14-.958-7.577.659-8.657,4.076-2.046,7.952-3.179,10.067a12.513,12.513,0,0,0-.8,3.991" transform="translate(-250.238 -238.435)"/></g></g></svg>