<svg xmlns="http://www.w3.org/2000/svg" xmlns:xlink="http://www.w3.org/1999/xlink" width="77.838" height="77.84" viewBox="0 0 77.838 77.84"><defs><style>.a,.c,.d,.e,.f,.g,.h,.i,.j,.k{fill:none;}.b{clip-path:url(#a);}.c,.d,.e,.f,.g,.h,.i,.j,.k{stroke:#000;stroke-miterlimit:10;}.c{stroke-width:1.302px;}.d{stroke-width:0.613px;}.e{stroke-width:0.306px;}.f{stroke-width:0.306px;}.g{stroke-width:0.306px;}.h{stroke-width:0.306px;}.i{stroke-width:0.306px;}.j{stroke-width:0.306px;}.k{stroke-width:0.306px;}</style><clipPath id="a"><rect class="a" width="77.838" height="77.84"/></clipPath></defs><g transform="translate(38.919 38.92)"><g class="b" transform="translate(-38.919 -38.92)"><circle class="c" cx="38.268" cy="38.268" r="38.268" transform="translate(0.651 0.651)"/><path class="d" d="M384.15,198.9s-3.409.789-2.75,8.083c0,0,.72,7.692-.751,11.745s-.207,10.419-.766,13.629-2.727,13.7-2.03,16.778.352,2.727.7,3.425,1.188,3,4.543,0l1.678.835s-.49,1.885,0,2.375,2.8,0,3.984,0,4.267-.138,6.221-2.168c0-1.394-.207-2.122-3.631-2.191,0,0-2.122-7.454-.628-12.3a36.534,36.534,0,0,0,1.885-14.587c-.352-6.083-.835-9.125-.7-9.508s1.471-4.367.942-5.907-1.923-4.65-4.3-4.964-5.378.36-6.6,5.57a6.5,6.5,0,0,0-.368,1.027" transform="translate(-348.778 -183.662)"/><ellipse class="e" cx="8.519" cy="4.267" rx="8.519" ry="4.267" transform="translate(30.306 7.222) rotate(-1.3)"/><path class="f" d="M450.6,100.2a4.694,4.694,0,0,0-4.834-3.8,5.532,5.532,0,0,0-5.562,4.03c.031,1.44,2.383,2.551,5.256,2.482S450.627,101.633,450.6,100.2Z" transform="translate(-406.475 -89.015)"/><path class="g" d="M460.965,199.322a1.382,1.382,0,0,0-.352,1.724c.559.981,4.543,1.984,4.543,1.984s-.008-1.708.467-2.145c.766-.7,2.352-.789,2.4-1.885" transform="translate(-425.156 -183.754)"/><path class="h" d="M478.353,414.5s.7.789,3.938.352c-.536,2.375-.7,3.149-.536,4.145s.981,7.9.981,7.9,1.164.138,1.233.866.444,2.283-.421,1.54c.138,1.471.306,2.957-1.494,3.1s-2.023-1.011-2.023-1.011-.329-2.911.536-3.869c-.276-1.448-1.984-8.159-2.122-8.879A10.5,10.5,0,0,1,478.353,414.5Z" transform="translate(-441.563 -382.744)"/><path class="i" d="M530.581,409.4s-.812,2.49-2.681,2.819" transform="translate(-487.456 -378.035)"/><path class="j" d="M438.217,338.972A12.956,12.956,0,0,1,434.9,332.1" transform="translate(-401.581 -306.657)"/><path class="k" d="M523.9,233.2s1.754,3.21,2.145,4.214" transform="translate(-483.763 -215.334)"/><path class="j" d="M413.762,197.2l-2.252,1.839a8.915,8.915,0,0,0,.659,7.585" transform="translate(-379.462 -182.092)"/></g></g></svg>