<svg xmlns="http://www.w3.org/2000/svg" xmlns:xlink="http://www.w3.org/1999/xlink" width="77.838" height="77.84" viewBox="0 0 77.838 77.84"><defs><style>.a,.c,.d,.e,.f,.g,.h,.i,.j,.k,.l,.m,.n,.o,.p{fill:none;}.b{clip-path:url(#a);}.c,.d,.e,.f,.g,.h,.i,.j,.k,.l,.m,.n,.o,.p{stroke:#000;stroke-miterlimit:10;}.c{stroke-width:1.302px;}.d{stroke-width:0.613px;}.e{stroke-width:0.306px;}.f{stroke-width:0.23px;}.g{stroke-width:0.23px;}.h{stroke-width:0.613px;}.i{stroke-width:0.613px;}.j{stroke-width:0.613px;}.k{stroke-width:0.613px;}.l{stroke-width:0.613px;}.m{stroke-width:0.613px;}.n{stroke-width:0.613px;}.o{stroke-width:0.613px;}.p{stroke-width:0.613px;}</style><clipPath id="a"><rect class="a" width="77.838" height="77.84"/></clipPath></defs><g transform="translate(38.919 38.92)"><g class="b" transform="translate(-38.919 -38.92)"><circle class="c" cx="38.268" cy="38.268" r="38.268" transform="translate(0.651 0.651)"/><path class="d" d="M276.528,328.655l14.2,8.175v1.149l-1.609.575.077,28.538-15.384,9.155-15.185-9.155V334.608l-1.724-1.187.536-.919,16.4-5.4.559.329" transform="translate(-237.218 -302.04)"/><path class="e" d="M648.154,70.119s.881-3.984-2.567-4.022-2.873,4.1-2.95,4.6a3.756,3.756,0,0,0,.46,2.873c.8,1.379.8,2.069,1.647,1.992s1.141.023,1.823-.82a4.916,4.916,0,0,0,1.387-2.773c.46-.26.575-.268.621-.575s.214-.4.268-.552S648.989,69.575,648.154,70.119Z" transform="translate(-593.308 -61.033)"/><path class="f" d="M648.746,119.1l-1.578,2.459a.115.115,0,0,1-.184.015.688.688,0,0,0-.475-.138l-1.1-.038a.115.115,0,0,0-.092.046.115.115,0,0,1-.1.046l-.667-.069a.122.122,0,0,1-.077-.038,1.092,1.092,0,0,0-.636-.245c-.544-.084-.552-.092-.735-.046" transform="translate(-593.831 -109.975)"/><path class="g" d="M655.5,164.925s.253-.107.368,0,.153.276.383.306.49-.222.651-.176.191.107.191.107" transform="translate(-605.281 -152.246)"/><path class="h" d="M448.18,123.952s-1-.735-2.375.781-1.417,4.122-1.8,4.811-1.073,1.341-.881,2.222a17.772,17.772,0,0,1-1.532,2.413c-.421.46-1.762,1.3-2.222,2.3s-.46,1.762-.728,1.992-1.226.881-1.226.881a12.352,12.352,0,0,0-3.064,1c-.651.5-2.183.843-2.26,1.034s-.651.843,1.111.421,2.911-.919,3.141-.613.153.651-.115,1.3-.191.69.268.843.345-.613.651-.919a3.487,3.487,0,0,0,1.073-1.992,23.488,23.488,0,0,0,2.26-.881s5.133-3.946,5.631-5.171a24.871,24.871,0,0,0,.077,4.022c.153.5.766,2.452,2.183,3.064a9.346,9.346,0,0,0,3.065.958c.5-.038,2.988.192,3.677-.306s1.762-1.226,1.954-2.069.192-2.413.8-2.95c1.3.881,1.8.958,1.839,1.3s-.613,1.149-.8,1.8.115,2.183-.153,2.6a11.455,11.455,0,0,0-.69,2.8v.345s-1.379,1.3-1.379,1.915-.421,1.532-.383,1.8.728.23,1-.728.919-.613.575.306-.8,1-.958,1.264-.421.919-.23.919a5.3,5.3,0,0,0,1.571-1.379c.077-.268,1-.8,1.264-1.3a2.354,2.354,0,0,0,.192-1.685,4.623,4.623,0,0,0,.383-.881,7.325,7.325,0,0,0,.827-1.456l.306-.766a26.117,26.117,0,0,0,1.808-3.754,12.924,12.924,0,0,0,0-2.812c.054-.414.36-.712.1-1.226s-.667-.919-.712-1.279a9.679,9.679,0,0,0-2.3-3.731c-1.126-.873-.712-.667-1.126-1.226s-1.433-1.279-1.739-1.785a7.966,7.966,0,0,0-2.046-2.092,4.74,4.74,0,0,1-1.241-1.1" transform="translate(-398.849 -114.291)"/><path class="i" d="M761,329.6a19.947,19.947,0,0,1,1.218,1.961c.038.23.107,2.053.107,2.053" transform="translate(-702.698 -304.349)"/><path class="j" d="M684.076,487.6a23.047,23.047,0,0,0,.306,3.179,48,48,0,0,1,.827,6.244s-.444,3.869-.368,4.444.766,2.6.8,2.95.253.728-.253,1.057c-.115.552-.176.843-.4,1.019s-.245.023-.674.268-1.379,2.015-2.873,2.429a20.628,20.628,0,0,1-3.248.559" transform="translate(-626.241 -450.244)"/><path class="k" d="M679.1,495.1l1.249-1.3-.192-.169a8.222,8.222,0,0,0,.59-2.168c-.061-.536-.444-2.812-.444-2.812a10.6,10.6,0,0,0,.713-1.969c.023-.46.13-3.348.1-3.731s-1.862-7.753-1.862-7.753" transform="translate(-627.073 -438.794)"/><path class="l" d="M692.675,545.7a23.976,23.976,0,0,1-.207,2.635c-.13.437-.268,1.1-.268,1.1l.766,2.9" transform="translate(-639.169 -503.893)"/><path class="m" d="M679.686,693.7l-1.119.9-.253-.337L678,694.6" transform="translate(-626.057 -640.554)"/><path class="n" d="M598.9,322.5l-1.065,1.272-.735,3.654.069.728" transform="translate(-551.355 -297.793)"/><path class="o" d="M774.884,413.568s-.72.781-1.984-.368" transform="translate(-713.686 -381.544)"/><path class="p" d="M505.766,327.134A1.131,1.131,0,0,0,505,326" transform="translate(-466.311 -301.024)"/></g></g></svg>