<svg xmlns="http://www.w3.org/2000/svg" xmlns:xlink="http://www.w3.org/1999/xlink" width="77.838" height="77.84" viewBox="0 0 77.838 77.84"><defs><style>.a,.aa,.ab,.ac,.ad,.ae,.af,.ag,.ah,.c,.d,.e,.f,.g,.h,.i,.j,.k,.l,.m,.n,.o,.p,.q,.r,.s,.t,.u,.v,.w,.x,.y,.z{fill:none;}.b{clip-path:url(#a);}.aa,.ab,.ac,.ad,.ae,.af,.ag,.ah,.c,.d,.e,.f,.g,.h,.i,.j,.k,.l,.m,.n,.o,.p,.q,.r,.s,.t,.u,.v,.w,.x,.y,.z{stroke:#000;stroke-miterlimit:10;}.c{stroke-width:1.302px;}.d{stroke-width:0.321px;}.e{stroke-width:0.602px;}.f{stroke-width:0.602px;}.g{stroke-width:0.602px;}.h{stroke-width:0.161px;}.i{stroke-width:0.161px;}.j{stroke-width:0.161px;}.k{stroke-width:0.161px;}.l{stroke-width:0.161px;}.m{stroke-width:0.161px;}.n{stroke-width:0.161px;}.o{stroke-width:0.161px;}.p{stroke-width:0.161px;}.q{stroke-width:0.161px;}.r{stroke-width:0.161px;}.s{stroke-width:0.161px;}.t{stroke-width:0.161px;}.u{stroke-width:0.161px;}.v{stroke-width:0.161px;}.w{stroke-width:0.161px;}.x{stroke-width:0.161px;}.y{stroke-width:0.161px;}.z{stroke-width:0.161px;}.aa{stroke-width:0.161px;}.ab{stroke-width:0.161px;}.ac{stroke-width:0.161px;}.ad{stroke-width:0.161px;}.ae{stroke-width:0.161px;}.af{stroke-width:0.161px;}.ag{stroke-width:0.161px;}.ah{stroke-width:0.161px;}</style><clipPath id="a"><rect class="a" width="77.838" height="77.84"/></clipPath></defs><g transform="translate(38.919 38.92)"><g class="b" transform="translate(-38.919 -38.92)"><circle class="c" cx="38.268" cy="38.268" r="38.268" transform="translate(0.651 0.651)"/><path class="d" d="M142.877,303.015l29.657-4.941L137.721,278.3,108.7,282.682l20.754,11.86-.636.253Z" transform="translate(-100.372 -256.979)"/><line class="e" y1="3.884" transform="translate(40.88 60.654)"/><path class="f" d="M532.89,597.913l.184-2.521L532.3,587.8" transform="translate(-491.519 -542.767)"/><line class="g" x1="0.981" y1="10.159" transform="translate(66.752 41.999)"/><line class="g" y1="6.022" x2="0.199" transform="translate(11.515 43.692)"/><line class="g" y1="11.408" x2="0.414" transform="translate(11.875 27.964)"/><line class="e" y1="2.735" transform="translate(47.063 58.202)"/><path d="M96.219,532.077,59.2,510.273l.115-.873,36.72,21.812,12.128-7.071v.621Z" transform="translate(-54.665 -470.374)"/><path class="h" d="M86.9,430.075,73.075,422,61.2,428.819" transform="translate(-56.511 -389.67)"/><line class="i" x1="3.631" y1="2.122" transform="translate(34.154 42.597)"/><line class="i" x1="2.865" y1="1.67" transform="translate(39.463 45.699)"/><line class="i" x1="1.279" y1="0.743" transform="translate(44.244 48.488)"/><path class="j" d="M639.513,669.1l-.368-.215L639,668.8" transform="translate(-590.045 -617.562)"/><line class="i" x1="0.697" y1="0.414" transform="translate(52.74 53.445)"/><path class="k" d="M525.742,735.7c0,.72-1.088,1.3-2.421,1.3s-2.421-.582-2.421-1.3,1.088-1.3,2.421-1.3S525.742,734.975,525.742,735.7Z" transform="translate(-480.993 -678.136)"/><path class="l" d="M525.158,750.331a.889.889,0,0,1-.222,1.05,3.273,3.273,0,0,1-2.421.728,3.378,3.378,0,0,1-2.046-.781,1.185,1.185,0,0,1-.146-1.027" transform="translate(-480.409 -692.818)"/><path class="m" d="M136.442,526c0,.72-1.088,1.3-2.421,1.3s-2.421-.582-2.421-1.3,1.088-1.3,2.421-1.3S136.442,525.282,136.442,526Z" transform="translate(-121.518 -484.501)"/><path class="n" d="M135.858,540.731a.889.889,0,0,1-.222,1.05,3.274,3.274,0,0,1-2.421.728,3.378,3.378,0,0,1-2.046-.781,1.185,1.185,0,0,1-.146-1.027" transform="translate(-120.934 -499.276)"/><path class="o" d="M81.742,493.4c0,.72-1.088,1.3-2.421,1.3s-2.421-.582-2.421-1.3,1.088-1.3,2.421-1.3S81.742,492.682,81.742,493.4Z" transform="translate(-71.009 -454.399)"/><path class="p" d="M81.1,508.031a.889.889,0,0,1-.222,1.05,3.273,3.273,0,0,1-2.421.728,3.378,3.378,0,0,1-2.046-.781A1.192,1.192,0,0,1,76.259,508" transform="translate(-70.368 -469.081)"/><path class="q" d="M580.842,702.8c0,.72-1.088,1.3-2.421,1.3S576,703.523,576,702.8s1.088-1.3,2.421-1.3S580.842,702.082,580.842,702.8Z" transform="translate(-531.871 -647.756)"/><path class="r" d="M580.258,717.531a.889.889,0,0,1-.222,1.05,3.274,3.274,0,0,1-2.421.728,3.378,3.378,0,0,1-2.046-.781,1.185,1.185,0,0,1-.146-1.027" transform="translate(-531.288 -662.531)"/><path class="k" d="M629.742,673c0,.72-1.088,1.3-2.421,1.3s-2.421-.582-2.421-1.3,1.088-1.3,2.421-1.3S629.742,672.282,629.742,673Z" transform="translate(-577.025 -620.239)"/><path class="s" d="M629.158,687.731a.889.889,0,0,1-.222,1.05,3.274,3.274,0,0,1-2.421.728,3.378,3.378,0,0,1-2.046-.781,1.185,1.185,0,0,1-.146-1.027" transform="translate(-576.441 -635.014)"/><path class="t" d="M578.7,642.2a3.091,3.091,0,0,1,2.153-.7c1.341,0,2.421.582,2.421,1.3s-1.088,1.3-2.421,1.3a3.764,3.764,0,0,1-1.739-.391" transform="translate(-534.364 -592.353)"/><path class="u" d="M588.906,657.9a.889.889,0,0,1-.222,1.05,3.273,3.273,0,0,1-2.421.728,4.059,4.059,0,0,1-1.463-.383" transform="translate(-539.997 -607.497)"/><path class="v" d="M471.91,672.6a3.842,3.842,0,0,1-.26.352c-.092.1.283.467.7.8a1.1,1.1,0,0,1,.345.912s-.015,1.042,0,1.456a1.316,1.316,0,0,1-.59,1.042,2.832,2.832,0,0,1-1.663.414,2.491,2.491,0,0,1-1.862-.766,1.157,1.157,0,0,1-.191-.766V674.9a1.493,1.493,0,0,1,.4-1.233c.506-.4.69-.521.621-.843" transform="translate(-432.492 -621.07)"/><path class="w" d="M479.041,656.389c0,.49-.7.889-1.571.889s-1.571-.4-1.571-.889.7-.889,1.571-.889S479.041,655.9,479.041,656.389Z" transform="translate(-439.44 -605.281)"/><path d="M484.345,665.906c0,.276-.475.506-1.073.506s-1.073-.23-1.073-.506.475-.506,1.073-.506,1.073.23,1.073.506" transform="translate(-445.258 -614.422)"/><path class="x" d="M532.409,635.4a3.8,3.8,0,0,1-.26.352c-.092.1.284.467.7.8a1.1,1.1,0,0,1,.345.912s-.015,1.042,0,1.456a1.317,1.317,0,0,1-.59,1.042,2.832,2.832,0,0,1-1.663.414,2.491,2.491,0,0,1-1.862-.766,1.157,1.157,0,0,1-.192-.766V637.7a1.493,1.493,0,0,1,.4-1.233c.506-.4.69-.521.628-.843" transform="translate(-488.357 -586.721)"/><ellipse class="i" cx="1.571" cy="0.889" rx="1.571" ry="0.889" transform="translate(41.095 47.369)"/><path d="M544.845,628.806c0,.276-.475.506-1.073.506s-1.073-.23-1.073-.506.475-.506,1.073-.506,1.073.23,1.073.506" transform="translate(-501.122 -580.164)"/><path class="y" d="M467.128,607.782a2.62,2.62,0,0,1-.651-.49,1.158,1.158,0,0,1-.192-.766v-1.149a1.493,1.493,0,0,1,.4-1.233c.506-.4.69-.521.628-.843" transform="translate(-430.553 -557.08)"/><path class="z" d="M508.992,600.5a3.811,3.811,0,0,1-.26.352c-.092.1.283.467.7.8a1.1,1.1,0,0,1,.345.912s-.015,1.042,0,1.456a1.317,1.317,0,0,1-.59,1.042l-.115.077" transform="translate(-469.743 -554.494)"/><ellipse class="i" cx="1.571" cy="0.889" rx="1.571" ry="0.889" transform="translate(36.299 44.703)"/><path d="M482.145,593.906c0,.276-.475.506-1.073.506s-1.073-.23-1.073-.506.475-.506,1.073-.506,1.073.23,1.073.506" transform="translate(-443.226 -547.938)"/><path class="aa" d="M410.217,638.1a3.8,3.8,0,0,1-.26.352c-.092.1.283.467.7.8a1.067,1.067,0,0,1,.337.9s-.015,1.042,0,1.456a1.316,1.316,0,0,1-.59,1.042,2.831,2.831,0,0,1-1.662.414,2.491,2.491,0,0,1-1.862-.766,1.157,1.157,0,0,1-.191-.766v-1.149a1.493,1.493,0,0,1,.4-1.233c.506-.4.69-.521.628-.843" transform="translate(-375.519 -589.214)"/><path class="ab" d="M417.441,621.889c0,.49-.7.889-1.571.889s-1.571-.4-1.571-.889.7-.889,1.571-.889S417.441,621.4,417.441,621.889Z" transform="translate(-382.559 -573.424)"/><path d="M422.745,631.406c0,.276-.475.506-1.073.506s-1.073-.23-1.073-.506.475-.506,1.073-.506,1.073.23,1.073.506" transform="translate(-388.377 -582.565)"/><path class="ac" d="M347.909,604.9a3.814,3.814,0,0,1-.26.352c-.092.1.283.467.7.8a1.1,1.1,0,0,1,.345.912s-.015,1.042,0,1.456a1.316,1.316,0,0,1-.59,1.042,2.831,2.831,0,0,1-1.663.414,2.491,2.491,0,0,1-1.862-.766,1.157,1.157,0,0,1-.192-.766V607.2a1.493,1.493,0,0,1,.4-1.234c.506-.4.69-.521.628-.843" transform="translate(-317.992 -558.557)"/><ellipse class="i" cx="1.571" cy="0.889" rx="1.571" ry="0.889" transform="translate(26.968 45.033)"/><path d="M360.345,598.206c0,.276-.475.506-1.073.506s-1.073-.23-1.073-.506.475-.506,1.073-.506,1.073.23,1.073.506" transform="translate(-330.757 -551.909)"/><path class="ad" d="M355.632,530.71a4.16,4.16,0,0,1-.69-1.6,6.09,6.09,0,0,1,.314-.835,4.057,4.057,0,0,1,3.34-1.486,3.562,3.562,0,0,1,3.248,1.777,1.517,1.517,0,0,1-.153,1.4,12.481,12.481,0,0,1-.988,1.333,2.85,2.85,0,0,1-2.375.743l-.621-.1" transform="translate(-327.745 -486.428)"/><path d="M378.044,529.918c0,.674-.95,1.218-2.122,1.218s-2.122-.544-2.122-1.218.95-1.218,2.122-1.218,2.122.544,2.122,1.218" transform="translate(-345.162 -488.195)"/><path class="ae" d="M296.57,578.166a3.015,3.015,0,0,1-.544-.031c-1.333-.192-2.046-.3-2.421-.881a5.689,5.689,0,0,1-.965-2.046,4.511,4.511,0,0,1,.314-.835,4.057,4.057,0,0,1,3.34-1.486,3.84,3.84,0,0,1,2.743,1.088" transform="translate(-270.215 -528.996)"/><path d="M314.764,577.045a3.34,3.34,0,0,1-1.142.192c-1.172,0-2.122-.544-2.122-1.218s.95-1.218,2.122-1.218c1.042,0,1.908.429,2.084,1" transform="translate(-287.635 -530.763)"/><path class="af" d="M264.5,496.218a5.611,5.611,0,0,1,.23-.544,4.057,4.057,0,0,1,3.34-1.486,3.562,3.562,0,0,1,3.248,1.777,1.517,1.517,0,0,1-.153,1.4,12.493,12.493,0,0,1-.988,1.333,2.85,2.85,0,0,1-2.375.743,11.591,11.591,0,0,1-1.333-.253" transform="translate(-244.236 -456.326)"/><path d="M286.444,497.318c0,.674-.95,1.218-2.122,1.218s-2.122-.544-2.122-1.218.95-1.218,2.122-1.218,2.122.544,2.122,1.218" transform="translate(-260.58 -458.093)"/><path class="ag" d="M176.559,470.951c-.981-.169-1.578-.375-1.846-.8a6.36,6.36,0,0,1-.965-2.046,4.513,4.513,0,0,1,.314-.835,4.057,4.057,0,0,1,3.34-1.486,3.562,3.562,0,0,1,3.248,1.777,1.517,1.517,0,0,1-.153,1.4c-.207.3-.421.605-.605.858" transform="translate(-160.432 -430.102)"/><path d="M196.844,468.918c0,.674-.95,1.218-2.122,1.218s-2.122-.544-2.122-1.218.95-1.218,2.122-1.218,2.122.544,2.122,1.218" transform="translate(-177.844 -431.868)"/><path class="ah" d="M201.358,520.274a4.057,4.057,0,0,1,3.34-1.486,3.562,3.562,0,0,1,3.248,1.777,1.517,1.517,0,0,1-.153,1.4,12.506,12.506,0,0,1-.988,1.333,2.85,2.85,0,0,1-2.375.743c-1.333-.192-2.107-.391-2.421-.881a6.062,6.062,0,0,1-.965-2.046A4.679,4.679,0,0,1,201.358,520.274Z" transform="translate(-185.637 -479.041)"/><path d="M224.144,521.918c0,.674-.95,1.218-2.122,1.218s-2.122-.544-2.122-1.218.95-1.218,2.122-1.218,2.122.544,2.122,1.218" transform="translate(-203.053 -480.808)"/></g></g></svg>